<svg xmlns="http://www.w3.org/2000/svg" version="1.1" xmlns:xlink="http://www.w3.org/1999/xlink" viewBox="0 0 200 200"><rect width="200" height="200" fill="url('#gradient')"></rect><defs><linearGradient id="gradient" gradientTransform="rotate(264 0.5 0.5)"><stop offset="0%" stop-color="#ffb4d7"></stop><stop offset="100%" stop-color="#ffe19b"></stop></linearGradient></defs><g><g fill="#ff0000" transform="matrix(5.187127532777116,0,0,5.187127532777116,9.38018125331159,127.95924184262682)" stroke="#6b4226" stroke-width="0.45"><path d="M1.08-4.13L6.40-5.98L1.08-7.78L1.08-10.77L9.67-7.26L9.67-4.66L1.08-1.14L1.08-4.13ZM18.64-10.57L20.30-4.34L21.37-10.57L24.52-10.57L22.03 0L19.25 0L17.50-6.27L15.74 0L12.96 0L10.47-10.57L13.62-10.57L14.67-4.19L16.35-10.57L18.64-10.57ZM33.86-7.79L28.52-5.95L33.86-4.15L33.86-1.15L25.22-4.67L25.22-7.27L33.86-10.78L33.86-7.79Z"></path></g></g></svg>